<svg xmlns="http://www.w3.org/2000/svg" xmlns:xlink="http://www.w3.org/1999/xlink" width="750" zoomAndPan="magnify" viewBox="0 0 562.5 374.999991" height="500" preserveAspectRatio="xMidYMid meet" version="1.0"><defs><g/><clipPath id="a6dae0c253"><path d="M 5 64 L 233 64 L 233 292 L 5 292 Z M 5 64 " clip-rule="nonzero"/></clipPath><clipPath id="9b1a7c2ecf"><path d="M 232.332031 177.765625 C 232.332031 240.539062 181.445312 291.4375 118.664062 291.4375 C 55.878906 291.4375 5.003906 240.539062 5.003906 177.765625 C 5.003906 114.992188 55.890625 64.097656 118.671875 64.097656 C 181.457031 64.097656 232.332031 114.992188 232.332031 177.765625 " clip-rule="nonzero"/></clipPath><clipPath id="bfbe6a847d"><path d="M 219.726562 42.453125 L 231.289062 42.453125 L 231.289062 54 L 219.726562 54 Z M 219.726562 42.453125 " clip-rule="nonzero"/></clipPath><clipPath id="6a251a2da2"><path d="M 225.296875 48.089844 C 224.117188 47.289062 222.6875 46.308594 221.246094 45.316406 C 221.15625 45.449219 221.066406 45.566406 220.964844 45.699219 C 221.625 46.679688 222.289062 47.648438 223.015625 48.738281 C 221.785156 49.210938 220.207031 48.207031 219.964844 50.269531 C 221.367188 49.410156 222.265625 50.328125 223.316406 50.980469 C 224.578125 51.761719 225.910156 52.511719 227.308594 52.953125 C 228.21875 53.242188 229.121094 52.972656 229.421875 51.570312 C 229.8125 49.769531 230.820312 48.109375 231.203125 46.308594 C 231.421875 45.246094 231 44.015625 230.742188 42.894531 C 230.640625 42.464844 229.78125 42.585938 229.429688 42.9375 C 228.929688 43.4375 228.230469 43.765625 227.820312 44.316406 C 226.878906 45.578125 226.058594 46.929688 225.296875 48.070312 " clip-rule="nonzero"/></clipPath><clipPath id="db2e54838a"><path d="M 226 54.015625 L 241.890625 54.015625 L 241.890625 63.652344 L 226 63.652344 Z M 226 54.015625 " clip-rule="nonzero"/></clipPath><clipPath id="da90410dfe"><path d="M 226.328125 56.652344 C 228.609375 57.101562 229.230469 58.714844 229.882812 60.355469 C 230.511719 61.925781 231.722656 62.917969 233.351562 63.375 C 234.703125 63.757812 235.703125 63.308594 235.925781 61.925781 C 236.246094 59.945312 237.066406 58.625 239.027344 57.832031 C 240.027344 57.433594 240.726562 56.292969 241.699219 55.363281 C 236.433594 54.222656 235.363281 54.601562 231.683594 58.925781 C 230.472656 57.125 229.351562 54.933594 226.320312 56.664062 " clip-rule="nonzero"/></clipPath><clipPath id="2d335d9aa2"><path d="M 218 72 L 227 72 L 227 79 L 218 79 Z M 218 72 " clip-rule="nonzero"/></clipPath><clipPath id="487b7de1f5"><path d="M 226.738281 72.960938 C 224.878906 72.761719 224.078125 73.121094 221.90625 75.09375 C 220.886719 73.972656 220.304688 72.222656 218.585938 72.230469 C 219.136719 73.34375 219.65625 74.550781 220.304688 75.671875 C 220.785156 76.503906 221.316406 77.382812 222.035156 77.984375 C 223.175781 78.945312 223.90625 78.625 224.558594 77.273438 C 224.886719 76.59375 225.5 76.054688 225.839844 75.375 C 226.21875 74.621094 226.429688 73.78125 226.730469 72.960938 " clip-rule="nonzero"/></clipPath><clipPath id="9268afadfa"><path d="M 73.242188 113.765625 L 177.320312 113.765625 L 177.320312 220.738281 L 73.242188 220.738281 Z M 73.242188 113.765625 " clip-rule="nonzero"/></clipPath><clipPath id="649c40ba41"><path d="M 73.5 186.992188 C 73.707031 191.152344 73.898438 195.304688 74.089844 199.46875 C 74.378906 205.691406 74.660156 211.914062 74.949219 218.136719 C 74.820312 218.898438 74.859375 219.617188 75.269531 220.097656 C 76.089844 221.058594 77.660156 220.308594 81.28125 220.179688 C 84.265625 220.078125 85.855469 220.5 86.105469 219.847656 C 86.34375 219.238281 85.15625 218.25 85.054688 218.167969 C 82.722656 216.257812 78.800781 217.617188 77.929688 217.9375 C 77.902344 217.199219 77.859375 216.425781 77.820312 215.65625 C 77.441406 209.074219 76.949219 202.488281 76.699219 195.898438 C 76.53125 191.34375 76.679688 186.78125 77.101562 182.179688 C 80.261719 186.542969 83.292969 190.863281 80.984375 196.628906 C 86.195312 196.558594 87.996094 192.84375 85.554688 188.101562 C 85.324219 189.34375 85.125 190.433594 84.953125 191.382812 C 83.414062 187.621094 81.902344 183.878906 80.351562 180.160156 C 79.121094 177.195312 79.410156 174.246094 81.875 172.355469 C 85.363281 169.652344 89.085938 167.042969 93.097656 165.269531 C 98.652344 162.828125 104.566406 161.207031 110.429688 159.195312 C 111.277344 162.167969 111.917969 165.449219 113.191406 168.472656 C 114.308594 171.144531 115.792969 173.835938 117.742188 175.9375 C 121.375 179.847656 128.078125 180.097656 132.289062 176.777344 C 133.230469 176.035156 133.71875 174.714844 134.410156 173.65625 C 134.160156 173.394531 133.910156 173.132812 133.660156 172.875 C 132.441406 173.453125 131.238281 174.054688 130 174.59375 C 124.144531 177.15625 119.761719 176.054688 117.433594 170.203125 C 115.28125 164.800781 114.199219 158.917969 113.191406 153.152344 C 112.628906 149.972656 114.960938 147.261719 118.183594 147.519531 C 123.957031 147.992188 128.546875 146.300781 133.371094 143.117188 C 138.484375 139.746094 144.605469 139.578125 150.289062 142.617188 C 154.351562 144.789062 158.183594 144.5 161.734375 141.859375 C 165.597656 138.988281 167.019531 134.84375 166.226562 130.222656 C 164.566406 120.535156 154.492188 116.144531 146.078125 121.265625 C 145.40625 121.675781 144.667969 121.988281 143.753906 121.867188 C 146.90625 118.414062 151 116.914062 155.523438 117.136719 C 163.417969 117.523438 169.398438 121.277344 172.421875 128.691406 C 175.53125 136.316406 173.910156 143.277344 168.167969 149.191406 C 164.667969 152.792969 164.417969 153.242188 164.9375 156.09375 C 173.582031 150.050781 177.933594 142.738281 176.851562 133.394531 C 175.773438 124.058594 169.519531 117.035156 160.703125 114.734375 C 154.203125 113.03125 148.199219 114.242188 142.675781 117.984375 C 140.113281 119.726562 139.652344 121.4375 141.054688 123.558594 C 142.546875 125.800781 144.757812 126.078125 147.367188 124.207031 C 149.929688 122.367188 152.710938 121.765625 155.761719 122.507812 C 161.613281 123.929688 164.847656 130.460938 162.464844 135.996094 C 160.574219 140.398438 156.261719 141.9375 151.910156 139.867188 C 143.035156 135.636719 134.929688 137.527344 127.226562 142.957031 C 126.207031 143.679688 124.777344 144.019531 123.503906 144.128906 C 120.992188 144.371094 118.390625 144.007812 115.941406 144.46875 C 111.847656 145.238281 109.707031 147.890625 110.039062 152.082031 C 110.257812 154.90625 109.117188 156.234375 106.796875 157.054688 C 102.574219 158.535156 98.351562 160.039062 94.097656 161.417969 C 88.898438 163.097656 84.113281 165.492188 80.140625 169.324219 C 76.929688 172.445312 75.007812 175.964844 77.300781 181.039062 C 74 181.910156 73.339844 184.210938 73.480469 186.980469 M 92.988281 206.480469 C 96.019531 204.011719 98.511719 200.480469 103.375 203.050781 C 102.875 203.640625 102.453125 204.621094 101.742188 204.921875 C 96.152344 207.261719 96.769531 211.523438 98.089844 216.066406 C 98.160156 216.316406 98.03125 216.636719 97.980469 217.019531 L 92.367188 217.277344 C 93.75 213.515625 88.558594 210.09375 92.980469 206.480469 M 134.949219 196.40625 C 134.570312 196.027344 134.421875 195.066406 134.609375 194.527344 C 135.511719 192.015625 136.5625 189.554688 137.621094 186.933594 C 144.257812 194.347656 145.066406 203.308594 139.824219 209.542969 C 138.5625 208.921875 137.28125 208.3125 136.023438 207.664062 C 135.761719 207.53125 135.550781 207.292969 135.140625 206.953125 C 135.429688 206.011719 135.472656 205.0625 135.953125 204.5 C 138.632812 201.371094 137.390625 198.878906 134.949219 196.398438 M 81.882812 218.097656 C 81.851562 218.339844 83.464844 218.890625 86.085938 219.367188 C 86.226562 218.667969 86.367188 217.988281 86.503906 217.289062 C 86.796875 216.796875 87.195312 216.027344 87.566406 215.058594 C 88.367188 212.945312 88.4375 211.316406 88.796875 211.316406 C 88.96875 211.316406 89.105469 211.726562 89.378906 212.554688 C 89.675781 213.484375 89.855469 214.265625 89.957031 214.816406 C 90.027344 215.1875 90.109375 215.738281 90.117188 216.40625 C 90.117188 216.917969 90.085938 217.296875 90.039062 217.757812 C 89.957031 218.507812 89.878906 219.21875 89.808594 219.878906 C 92.167969 220.121094 94.898438 220.25 97.78125 220.097656 C 99.773438 220 101.414062 219.800781 102.554688 219.640625 C 102.3125 218.6875 102.074219 217.75 101.824219 216.796875 C 99.992188 212.976562 100.304688 211.15625 100.972656 210.203125 C 101.394531 209.605469 101.453125 208.382812 104.324219 206.851562 C 104.664062 206.671875 104.984375 206.320312 105.15625 205.972656 C 106.484375 203.242188 108.96875 202.800781 111.628906 202.320312 C 113.78125 201.941406 114.949219 202.628906 115.550781 204.550781 C 116.722656 208.304688 117.851562 212.074219 119.042969 216.007812 L 119.011719 216.007812 L 120.191406 219.820312 C 124.957031 220.269531 133.289062 220.828125 134.339844 217.988281 C 134.640625 217.167969 134.269531 216.265625 133.890625 215.628906 C 133.539062 213.644531 133.191406 211.664062 132.839844 209.683594 C 135.953125 211.195312 138.664062 212.503906 142.074219 214.15625 C 143.796875 209.261719 145.988281 204.722656 146.847656 199.929688 C 147.289062 197.46875 145.496094 194.515625 144.40625 191.914062 C 143.515625 189.773438 142.265625 187.753906 141.015625 185.792969 C 138.851562 182.398438 138.464844 180.738281 141.324219 177.738281 C 144.9375 173.933594 149.21875 170.785156 153.25 167.390625 C 154.089844 166.691406 155.121094 166.210938 156.0625 165.621094 C 156.050781 165.300781 156.042969 164.980469 156.042969 164.660156 C 154.761719 164.640625 153.199219 164.128906 152.25 164.679688 C 145.214844 168.730469 138.582031 173.15625 136.050781 181.628906 C 134.742188 186 133 190.261719 131.300781 194.507812 C 128.558594 201.347656 129.519531 208.292969 130.570312 215.527344 L 122.324219 215.90625 C 122.023438 214.945312 121.675781 213.816406 121.332031 212.683594 C 119.714844 207.363281 118.210938 202.089844 114.75 197.4375 C 112.460938 194.347656 111.429688 190.324219 109.789062 186.601562 C 107.1875 188.074219 108.21875 190.464844 108.867188 192.574219 C 109.539062 194.765625 110.617188 196.835938 111.769531 199.570312 C 107.738281 199.507812 104.144531 199.457031 100.242188 199.398438 C 101.152344 195.695312 104.65625 192.554688 101.191406 188.503906 C 100.734375 189.292969 100.394531 189.664062 100.304688 190.09375 C 98.992188 196.1875 95.558594 200.988281 90.539062 204.390625 C 87.425781 206.503906 86.164062 209.0625 85.554688 212.546875 C 85.054688 215.375 84.765625 216.835938 83.875 217.546875 C 82.953125 218.277344 81.902344 217.929688 81.882812 218.117188 " clip-rule="nonzero"/></clipPath><clipPath id="0eba68d11f"><path d="M 149.375 152 L 179 152 L 179 162.914062 L 149.375 162.914062 Z M 149.375 152 " clip-rule="nonzero"/></clipPath><clipPath id="4047650d67"><path d="M 177.535156 152.054688 C 174.59375 157.015625 169.910156 158.175781 165.117188 158.71875 C 160.273438 159.257812 155.371094 159.238281 150.300781 159.46875 C 150.160156 160.386719 150.027344 161.25 149.910156 162.027344 C 150.25 162.230469 150.429688 162.429688 150.589844 162.417969 C 157.0625 161.949219 163.578125 161.730469 169.988281 160.816406 C 172.5625 160.457031 175.042969 158.765625 177.3125 157.304688 C 179.195312 156.09375 179.414062 154.214844 177.542969 152.054688 " clip-rule="nonzero"/></clipPath><clipPath id="75996583bc"><path d="M 144 148.460938 L 147.445312 148.460938 L 147.445312 151 L 144 151 Z M 144 148.460938 " clip-rule="nonzero"/></clipPath><clipPath id="152fad1a98"><path d="M 144.277344 150.621094 C 145.238281 151.113281 146.316406 150.953125 146.886719 150.300781 C 147.378906 149.753906 147.335938 149.042969 147.316406 148.851562 " clip-rule="nonzero"/></clipPath></defs><g clip-path="url(#a6dae0c253)"><g clip-path="url(#9b1a7c2ecf)"><path fill="#f3903f" d="M 0 37.632812 L 246.710938 37.632812 L 246.710938 296.871094 L 0 296.871094 Z M 0 37.632812 " fill-opacity="1" fill-rule="nonzero"/></g></g><g clip-path="url(#bfbe6a847d)"><g clip-path="url(#6a251a2da2)"><path fill="#231f20" d="M 0 37.632812 L 246.710938 37.632812 L 246.710938 296.871094 L 0 296.871094 Z M 0 37.632812 " fill-opacity="1" fill-rule="nonzero"/></g></g><g clip-path="url(#db2e54838a)"><g clip-path="url(#da90410dfe)"><path fill="#231f20" d="M 0 37.632812 L 246.710938 37.632812 L 246.710938 296.871094 L 0 296.871094 Z M 0 37.632812 " fill-opacity="1" fill-rule="nonzero"/></g></g><g clip-path="url(#2d335d9aa2)"><g clip-path="url(#487b7de1f5)"><path fill="#231f20" d="M 0 37.632812 L 246.710938 37.632812 L 246.710938 296.871094 L 0 296.871094 Z M 0 37.632812 " fill-opacity="1" fill-rule="nonzero"/></g></g><g clip-path="url(#9268afadfa)"><g clip-path="url(#649c40ba41)"><path fill="#231f20" d="M 0 37.632812 L 246.710938 37.632812 L 246.710938 296.871094 L 0 296.871094 Z M 0 37.632812 " fill-opacity="1" fill-rule="nonzero"/></g></g><g clip-path="url(#0eba68d11f)"><g clip-path="url(#4047650d67)"><path fill="#231f20" d="M 0 37.632812 L 246.710938 37.632812 L 246.710938 296.871094 L 0 296.871094 Z M 0 37.632812 " fill-opacity="1" fill-rule="nonzero"/></g></g><g clip-path="url(#75996583bc)"><g clip-path="url(#152fad1a98)"><path fill="#231f20" d="M 0 37.632812 L 246.710938 37.632812 L 246.710938 296.871094 L 0 296.871094 Z M 0 37.632812 " fill-opacity="1" fill-rule="nonzero"/></g></g><g fill="#231f20" fill-opacity="1"><g transform="translate(250.002756, 154.818942)"><g><path d="M 16.21875 -9.3125 L 36.3125 -9.3125 L 36.3125 0 L 3.328125 0 L 3.328125 -8.640625 L 23.28125 -37.375 L 3.328125 -37.375 L 3.328125 -46.6875 L 36.3125 -46.6875 L 36.3125 -38.03125 Z M 16.21875 -9.3125 "/></g></g></g><g fill="#231f20" fill-opacity="1"><g transform="translate(289.629763, 154.818942)"><g><path d="M 1.859375 -18.625 C 1.859375 -22.4375 2.578125 -25.78125 4.015625 -28.65625 C 5.460938 -31.539062 7.425781 -33.757812 9.90625 -35.3125 C 12.382812 -36.863281 15.15625 -37.640625 18.21875 -37.640625 C 20.832031 -37.640625 23.125 -37.109375 25.09375 -36.046875 C 27.070312 -34.984375 28.59375 -33.585938 29.65625 -31.859375 L 29.65625 -37.109375 L 41.03125 -37.109375 L 41.03125 0 L 29.65625 0 L 29.65625 -5.25 C 28.550781 -3.519531 27.007812 -2.125 25.03125 -1.0625 C 23.0625 0 20.769531 0.53125 18.15625 0.53125 C 15.132812 0.53125 12.382812 -0.253906 9.90625 -1.828125 C 7.425781 -3.398438 5.460938 -5.640625 4.015625 -8.546875 C 2.578125 -11.453125 1.859375 -14.8125 1.859375 -18.625 Z M 29.65625 -18.546875 C 29.65625 -21.390625 28.867188 -23.628906 27.296875 -25.265625 C 25.722656 -26.910156 23.804688 -27.734375 21.546875 -27.734375 C 19.285156 -27.734375 17.367188 -26.921875 15.796875 -25.296875 C 14.222656 -23.679688 13.4375 -21.457031 13.4375 -18.625 C 13.4375 -15.78125 14.222656 -13.523438 15.796875 -11.859375 C 17.367188 -10.203125 19.285156 -9.375 21.546875 -9.375 C 23.804688 -9.375 25.722656 -10.191406 27.296875 -11.828125 C 28.867188 -13.472656 29.65625 -15.710938 29.65625 -18.546875 Z M 29.65625 -18.546875 "/></g></g></g><g fill="#231f20" fill-opacity="1"><g transform="translate(334.775287, 154.818942)"><g><path d="M 51.46875 -37.5 C 56.082031 -37.5 59.75 -36.101562 62.46875 -33.3125 C 65.195312 -30.519531 66.5625 -26.640625 66.5625 -21.671875 L 66.5625 0 L 55.265625 0 L 55.265625 -20.15625 C 55.265625 -22.539062 54.628906 -24.382812 53.359375 -25.6875 C 52.097656 -27 50.359375 -27.65625 48.140625 -27.65625 C 45.929688 -27.65625 44.191406 -27 42.921875 -25.6875 C 41.660156 -24.382812 41.03125 -22.539062 41.03125 -20.15625 L 41.03125 0 L 29.71875 0 L 29.71875 -20.15625 C 29.71875 -22.539062 29.085938 -24.382812 27.828125 -25.6875 C 26.566406 -27 24.828125 -27.65625 22.609375 -27.65625 C 20.390625 -27.65625 18.648438 -27 17.390625 -25.6875 C 16.128906 -24.382812 15.5 -22.539062 15.5 -20.15625 L 15.5 0 L 4.125 0 L 4.125 -37.109375 L 15.5 -37.109375 L 15.5 -32.453125 C 16.644531 -34.003906 18.148438 -35.234375 20.015625 -36.140625 C 21.878906 -37.046875 23.984375 -37.5 26.328125 -37.5 C 29.128906 -37.5 31.625 -36.898438 33.8125 -35.703125 C 36.007812 -34.515625 37.726562 -32.8125 38.96875 -30.59375 C 40.25 -32.632812 42 -34.296875 44.21875 -35.578125 C 46.4375 -36.859375 48.851562 -37.5 51.46875 -37.5 Z M 51.46875 -37.5 "/></g></g></g><g fill="#231f20" fill-opacity="1"><g transform="translate(405.186353, 154.818942)"><g><path d="M 15.5 -31.859375 C 16.5625 -33.585938 18.085938 -34.984375 20.078125 -36.046875 C 22.078125 -37.109375 24.363281 -37.640625 26.9375 -37.640625 C 29.988281 -37.640625 32.753906 -36.863281 35.234375 -35.3125 C 37.722656 -33.757812 39.6875 -31.539062 41.125 -28.65625 C 42.570312 -25.78125 43.296875 -22.4375 43.296875 -18.625 C 43.296875 -14.8125 42.570312 -11.453125 41.125 -8.546875 C 39.6875 -5.640625 37.722656 -3.398438 35.234375 -1.828125 C 32.753906 -0.253906 29.988281 0.53125 26.9375 0.53125 C 24.320312 0.53125 22.035156 0.0078125 20.078125 -1.03125 C 18.128906 -2.070312 16.601562 -3.457031 15.5 -5.1875 L 15.5 0 L 4.125 0 L 4.125 -49.203125 L 15.5 -49.203125 Z M 31.71875 -18.625 C 31.71875 -21.457031 30.929688 -23.679688 29.359375 -25.296875 C 27.785156 -26.921875 25.847656 -27.734375 23.546875 -27.734375 C 21.285156 -27.734375 19.363281 -26.910156 17.78125 -25.265625 C 16.207031 -23.628906 15.421875 -21.390625 15.421875 -18.546875 C 15.421875 -15.710938 16.207031 -13.472656 17.78125 -11.828125 C 19.363281 -10.191406 21.285156 -9.375 23.546875 -9.375 C 25.804688 -9.375 27.734375 -10.203125 29.328125 -11.859375 C 30.921875 -13.523438 31.71875 -15.78125 31.71875 -18.625 Z M 31.71875 -18.625 "/></g></g></g><g fill="#231f20" fill-opacity="1"><g transform="translate(450.331878, 154.818942)"><g><path d="M 39.109375 -19.15625 C 39.109375 -18.09375 39.039062 -16.984375 38.90625 -15.828125 L 13.171875 -15.828125 C 13.347656 -13.523438 14.085938 -11.765625 15.390625 -10.546875 C 16.703125 -9.328125 18.3125 -8.71875 20.21875 -8.71875 C 23.050781 -8.71875 25.023438 -9.910156 26.140625 -12.296875 L 38.234375 -12.296875 C 37.617188 -9.859375 36.5 -7.664062 34.875 -5.71875 C 33.257812 -3.769531 31.234375 -2.238281 28.796875 -1.125 C 26.359375 -0.0195312 23.628906 0.53125 20.609375 0.53125 C 16.972656 0.53125 13.738281 -0.242188 10.90625 -1.796875 C 8.070312 -3.347656 5.851562 -5.5625 4.25 -8.4375 C 2.65625 -11.320312 1.859375 -14.691406 1.859375 -18.546875 C 1.859375 -22.410156 2.644531 -25.78125 4.21875 -28.65625 C 5.789062 -31.539062 7.992188 -33.757812 10.828125 -35.3125 C 13.671875 -36.863281 16.929688 -37.640625 20.609375 -37.640625 C 24.203125 -37.640625 27.394531 -36.882812 30.1875 -35.375 C 32.976562 -33.863281 35.160156 -31.710938 36.734375 -28.921875 C 38.316406 -26.128906 39.109375 -22.875 39.109375 -19.15625 Z M 27.46875 -22.140625 C 27.46875 -24.097656 26.800781 -25.648438 25.46875 -26.796875 C 24.132812 -27.953125 22.472656 -28.53125 20.484375 -28.53125 C 18.578125 -28.53125 16.96875 -27.972656 15.65625 -26.859375 C 14.351562 -25.753906 13.546875 -24.179688 13.234375 -22.140625 Z M 27.46875 -22.140625 "/></g></g></g><g fill="#231f20" fill-opacity="1"><g transform="translate(491.288641, 154.818942)"><g><path d="M 14.765625 -9.375 L 30.859375 -9.375 L 30.859375 0 L 2.0625 0 L 2.0625 -9.046875 L 17.484375 -27.734375 L 2.1875 -27.734375 L 2.1875 -37.109375 L 30.53125 -37.109375 L 30.53125 -28.0625 Z M 14.765625 -9.375 "/></g></g></g><g fill="#231f20" fill-opacity="1"><g transform="translate(524.266819, 154.818942)"><g><path d="M 9.84375 -40.96875 C 7.84375 -40.96875 6.210938 -41.550781 4.953125 -42.71875 C 3.691406 -43.894531 3.0625 -45.347656 3.0625 -47.078125 C 3.0625 -48.847656 3.691406 -50.320312 4.953125 -51.5 C 6.210938 -52.675781 7.84375 -53.265625 9.84375 -53.265625 C 11.789062 -53.265625 13.394531 -52.675781 14.65625 -51.5 C 15.925781 -50.320312 16.5625 -48.847656 16.5625 -47.078125 C 16.5625 -45.347656 15.925781 -43.894531 14.65625 -42.71875 C 13.394531 -41.550781 11.789062 -40.96875 9.84375 -40.96875 Z M 15.5 -37.109375 L 15.5 0 L 4.125 0 L 4.125 -37.109375 Z M 15.5 -37.109375 "/></g></g></g><g fill="#f3903f" fill-opacity="1"><g transform="translate(250.002756, 225.856375)"><g><path d="M 35.109375 -31.921875 C 34.265625 -33.472656 33.054688 -34.65625 31.484375 -35.46875 C 29.910156 -36.289062 28.0625 -36.703125 25.9375 -36.703125 C 22.257812 -36.703125 19.3125 -35.492188 17.09375 -33.078125 C 14.875 -30.660156 13.765625 -27.4375 13.765625 -23.40625 C 13.765625 -19.101562 14.925781 -15.742188 17.25 -13.328125 C 19.582031 -10.910156 22.785156 -9.703125 26.859375 -9.703125 C 29.660156 -9.703125 32.023438 -10.410156 33.953125 -11.828125 C 35.878906 -13.253906 37.285156 -15.296875 38.171875 -17.953125 L 23.734375 -17.953125 L 23.734375 -26.328125 L 48.484375 -26.328125 L 48.484375 -15.765625 C 47.640625 -12.921875 46.207031 -10.28125 44.1875 -7.84375 C 42.164062 -5.40625 39.601562 -3.429688 36.5 -1.921875 C 33.40625 -0.421875 29.90625 0.328125 26 0.328125 C 21.382812 0.328125 17.269531 -0.675781 13.65625 -2.6875 C 10.050781 -4.707031 7.238281 -7.507812 5.21875 -11.09375 C 3.195312 -14.6875 2.1875 -18.789062 2.1875 -23.40625 C 2.1875 -28.019531 3.195312 -32.128906 5.21875 -35.734375 C 7.238281 -39.347656 10.039062 -42.164062 13.625 -44.1875 C 17.21875 -46.207031 21.320312 -47.21875 25.9375 -47.21875 C 31.519531 -47.21875 36.226562 -45.863281 40.0625 -43.15625 C 43.894531 -40.457031 46.4375 -36.710938 47.6875 -31.921875 Z M 35.109375 -31.921875 "/></g></g></g><g fill="#f3903f" fill-opacity="1"><g transform="translate(300.666814, 225.856375)"><g><path d="M 9.84375 -40.96875 C 7.84375 -40.96875 6.210938 -41.550781 4.953125 -42.71875 C 3.691406 -43.894531 3.0625 -45.347656 3.0625 -47.078125 C 3.0625 -48.847656 3.691406 -50.320312 4.953125 -51.5 C 6.210938 -52.675781 7.84375 -53.265625 9.84375 -53.265625 C 11.789062 -53.265625 13.394531 -52.675781 14.65625 -51.5 C 15.925781 -50.320312 16.5625 -48.847656 16.5625 -47.078125 C 16.5625 -45.347656 15.925781 -43.894531 14.65625 -42.71875 C 13.394531 -41.550781 11.789062 -40.96875 9.84375 -40.96875 Z M 15.5 -37.109375 L 15.5 0 L 4.125 0 L 4.125 -37.109375 Z M 15.5 -37.109375 "/></g></g></g><g fill="#f3903f" fill-opacity="1"><g transform="translate(320.280848, 225.856375)"><g><path d="M 1.859375 -18.625 C 1.859375 -22.4375 2.578125 -25.78125 4.015625 -28.65625 C 5.460938 -31.539062 7.425781 -33.757812 9.90625 -35.3125 C 12.382812 -36.863281 15.15625 -37.640625 18.21875 -37.640625 C 20.832031 -37.640625 23.125 -37.109375 25.09375 -36.046875 C 27.070312 -34.984375 28.59375 -33.585938 29.65625 -31.859375 L 29.65625 -37.109375 L 41.03125 -37.109375 L 41.03125 0 L 29.65625 0 L 29.65625 -5.25 C 28.550781 -3.519531 27.007812 -2.125 25.03125 -1.0625 C 23.0625 0 20.769531 0.53125 18.15625 0.53125 C 15.132812 0.53125 12.382812 -0.253906 9.90625 -1.828125 C 7.425781 -3.398438 5.460938 -5.640625 4.015625 -8.546875 C 2.578125 -11.453125 1.859375 -14.8125 1.859375 -18.625 Z M 29.65625 -18.546875 C 29.65625 -21.390625 28.867188 -23.628906 27.296875 -25.265625 C 25.722656 -26.910156 23.804688 -27.734375 21.546875 -27.734375 C 19.285156 -27.734375 17.367188 -26.921875 15.796875 -25.296875 C 14.222656 -23.679688 13.4375 -21.457031 13.4375 -18.625 C 13.4375 -15.78125 14.222656 -13.523438 15.796875 -11.859375 C 17.367188 -10.203125 19.285156 -9.375 21.546875 -9.375 C 23.804688 -9.375 25.722656 -10.191406 27.296875 -11.828125 C 28.867188 -13.472656 29.65625 -15.710938 29.65625 -18.546875 Z M 29.65625 -18.546875 "/></g></g></g><g fill="#f3903f" fill-opacity="1"><g transform="translate(365.426373, 225.856375)"><g><path d="M 26.734375 -37.5 C 31.078125 -37.5 34.546875 -36.09375 37.140625 -33.28125 C 39.734375 -30.46875 41.03125 -26.597656 41.03125 -21.671875 L 41.03125 0 L 29.71875 0 L 29.71875 -20.15625 C 29.71875 -22.632812 29.078125 -24.5625 27.796875 -25.9375 C 26.515625 -27.3125 24.785156 -28 22.609375 -28 C 20.429688 -28 18.703125 -27.3125 17.421875 -25.9375 C 16.140625 -24.5625 15.5 -22.632812 15.5 -20.15625 L 15.5 0 L 4.125 0 L 4.125 -37.109375 L 15.5 -37.109375 L 15.5 -32.1875 C 16.644531 -33.820312 18.191406 -35.113281 20.140625 -36.0625 C 22.097656 -37.019531 24.296875 -37.5 26.734375 -37.5 Z M 26.734375 -37.5 "/></g></g></g><g fill="#f3903f" fill-opacity="1"><g transform="translate(410.239462, 225.856375)"><g><path d="M 24.796875 -9.640625 L 24.796875 0 L 19.015625 0 C 14.890625 0 11.675781 -1.003906 9.375 -3.015625 C 7.070312 -5.035156 5.921875 -8.332031 5.921875 -12.90625 L 5.921875 -27.65625 L 1.390625 -27.65625 L 1.390625 -37.109375 L 5.921875 -37.109375 L 5.921875 -46.15625 L 17.296875 -46.15625 L 17.296875 -37.109375 L 24.734375 -37.109375 L 24.734375 -27.65625 L 17.296875 -27.65625 L 17.296875 -12.765625 C 17.296875 -11.660156 17.5625 -10.863281 18.09375 -10.375 C 18.625 -9.882812 19.507812 -9.640625 20.75 -9.640625 Z M 24.796875 -9.640625 "/></g></g></g><g fill="#f3903f" fill-opacity="1"><g transform="translate(437.233697, 225.856375)"><g><path d="M 19.21875 0.53125 C 15.976562 0.53125 13.09375 -0.0195312 10.5625 -1.125 C 8.039062 -2.238281 6.046875 -3.757812 4.578125 -5.6875 C 3.117188 -7.613281 2.300781 -9.773438 2.125 -12.171875 L 13.359375 -12.171875 C 13.492188 -10.878906 14.09375 -9.832031 15.15625 -9.03125 C 16.226562 -8.238281 17.535156 -7.84375 19.078125 -7.84375 C 20.503906 -7.84375 21.601562 -8.117188 22.375 -8.671875 C 23.15625 -9.234375 23.546875 -9.957031 23.546875 -10.84375 C 23.546875 -11.90625 22.988281 -12.691406 21.875 -13.203125 C 20.769531 -13.710938 18.972656 -14.273438 16.484375 -14.890625 C 13.828125 -15.515625 11.613281 -16.171875 9.84375 -16.859375 C 8.070312 -17.546875 6.539062 -18.628906 5.25 -20.109375 C 3.96875 -21.597656 3.328125 -23.609375 3.328125 -26.140625 C 3.328125 -28.265625 3.910156 -30.203125 5.078125 -31.953125 C 6.253906 -33.703125 7.984375 -35.085938 10.265625 -36.109375 C 12.554688 -37.128906 15.273438 -37.640625 18.421875 -37.640625 C 23.078125 -37.640625 26.742188 -36.484375 29.421875 -34.171875 C 32.109375 -31.867188 33.648438 -28.8125 34.046875 -25 L 23.546875 -25 C 23.367188 -26.289062 22.800781 -27.3125 21.84375 -28.0625 C 20.894531 -28.8125 19.644531 -29.1875 18.09375 -29.1875 C 16.757812 -29.1875 15.738281 -28.929688 15.03125 -28.421875 C 14.320312 -27.910156 13.96875 -27.210938 13.96875 -26.328125 C 13.96875 -25.265625 14.53125 -24.46875 15.65625 -23.9375 C 16.789062 -23.40625 18.554688 -22.875 20.953125 -22.34375 C 23.703125 -21.632812 25.9375 -20.9375 27.65625 -20.25 C 29.382812 -19.5625 30.90625 -18.453125 32.21875 -16.921875 C 33.53125 -15.390625 34.207031 -13.335938 34.25 -10.765625 C 34.25 -8.597656 33.640625 -6.660156 32.421875 -4.953125 C 31.203125 -3.242188 29.445312 -1.898438 27.15625 -0.921875 C 24.875 0.046875 22.226562 0.53125 19.21875 0.53125 Z M 19.21875 0.53125 "/></g></g></g><g fill="#231f20" fill-opacity="1"><g transform="translate(250.002756, 276.883264)"><g><path d="M 13.546875 -18.65625 L 13.546875 -16.671875 L 8.453125 -16.671875 L 8.453125 0 L 6.015625 0 L 6.015625 -16.671875 L 0.90625 -16.671875 L 0.90625 -18.65625 Z M 13.546875 -18.65625 "/></g></g></g><g fill="#231f20" fill-opacity="1"><g transform="translate(264.482188, 276.883264)"><g><path d="M 4.5 -12.28125 C 4.925781 -13.125 5.535156 -13.773438 6.328125 -14.234375 C 7.117188 -14.703125 8.085938 -14.9375 9.234375 -14.9375 L 9.234375 -12.421875 L 8.59375 -12.421875 C 5.863281 -12.421875 4.5 -10.9375 4.5 -7.96875 L 4.5 0 L 2.0625 0 L 2.0625 -14.671875 L 4.5 -14.671875 Z M 4.5 -12.28125 "/></g></g></g><g fill="#231f20" fill-opacity="1"><g transform="translate(274.465232, 276.883264)"><g><path d="M 1.15625 -7.390625 C 1.15625 -8.890625 1.457031 -10.203125 2.0625 -11.328125 C 2.664062 -12.460938 3.5 -13.34375 4.5625 -13.96875 C 5.625 -14.59375 6.804688 -14.90625 8.109375 -14.90625 C 9.390625 -14.90625 10.503906 -14.628906 11.453125 -14.078125 C 12.398438 -13.523438 13.101562 -12.828125 13.5625 -11.984375 L 13.5625 -14.671875 L 16.03125 -14.671875 L 16.03125 0 L 13.5625 0 L 13.5625 -2.734375 C 13.082031 -1.878906 12.363281 -1.171875 11.40625 -0.609375 C 10.457031 -0.046875 9.347656 0.234375 8.078125 0.234375 C 6.773438 0.234375 5.597656 -0.0820312 4.546875 -0.71875 C 3.492188 -1.363281 2.664062 -2.265625 2.0625 -3.421875 C 1.457031 -4.585938 1.15625 -5.910156 1.15625 -7.390625 Z M 13.5625 -7.359375 C 13.5625 -8.460938 13.335938 -9.425781 12.890625 -10.25 C 12.453125 -11.070312 11.851562 -11.703125 11.09375 -12.140625 C 10.332031 -12.578125 9.5 -12.796875 8.59375 -12.796875 C 7.6875 -12.796875 6.859375 -12.582031 6.109375 -12.15625 C 5.359375 -11.726562 4.757812 -11.101562 4.3125 -10.28125 C 3.863281 -9.457031 3.640625 -8.492188 3.640625 -7.390625 C 3.640625 -6.265625 3.863281 -5.285156 4.3125 -4.453125 C 4.757812 -3.628906 5.359375 -3 6.109375 -2.5625 C 6.859375 -2.125 7.6875 -1.90625 8.59375 -1.90625 C 9.5 -1.90625 10.332031 -2.125 11.09375 -2.5625 C 11.851562 -3 12.453125 -3.628906 12.890625 -4.453125 C 13.335938 -5.285156 13.5625 -6.253906 13.5625 -7.359375 Z M 13.5625 -7.359375 "/></g></g></g><g fill="#231f20" fill-opacity="1"><g transform="translate(292.55782, 276.883264)"><g><path d="M 7.515625 -2.25 L 12.078125 -14.671875 L 14.671875 -14.671875 L 8.90625 0 L 6.078125 0 L 0.328125 -14.671875 L 2.9375 -14.671875 Z M 7.515625 -2.25 "/></g></g></g><g fill="#231f20" fill-opacity="1"><g transform="translate(307.572537, 276.883264)"><g><path d="M 15.4375 -7.890625 C 15.4375 -7.429688 15.410156 -6.941406 15.359375 -6.421875 L 3.640625 -6.421875 C 3.734375 -4.972656 4.226562 -3.84375 5.125 -3.03125 C 6.03125 -2.21875 7.125 -1.8125 8.40625 -1.8125 C 9.457031 -1.8125 10.332031 -2.054688 11.03125 -2.546875 C 11.738281 -3.046875 12.238281 -3.703125 12.53125 -4.515625 L 15.15625 -4.515625 C 14.757812 -3.109375 13.972656 -1.960938 12.796875 -1.078125 C 11.617188 -0.203125 10.15625 0.234375 8.40625 0.234375 C 7.007812 0.234375 5.765625 -0.0703125 4.671875 -0.6875 C 3.578125 -1.3125 2.71875 -2.195312 2.09375 -3.34375 C 1.46875 -4.5 1.15625 -5.835938 1.15625 -7.359375 C 1.15625 -8.878906 1.457031 -10.207031 2.0625 -11.34375 C 2.664062 -12.488281 3.515625 -13.367188 4.609375 -13.984375 C 5.710938 -14.597656 6.976562 -14.90625 8.40625 -14.90625 C 9.789062 -14.90625 11.019531 -14.601562 12.09375 -14 C 13.164062 -13.394531 13.988281 -12.5625 14.5625 -11.5 C 15.144531 -10.4375 15.4375 -9.234375 15.4375 -7.890625 Z M 12.921875 -8.40625 C 12.921875 -9.332031 12.71875 -10.128906 12.3125 -10.796875 C 11.90625 -11.460938 11.347656 -11.96875 10.640625 -12.3125 C 9.929688 -12.664062 9.148438 -12.84375 8.296875 -12.84375 C 7.066406 -12.84375 6.019531 -12.445312 5.15625 -11.65625 C 4.289062 -10.875 3.796875 -9.789062 3.671875 -8.40625 Z M 12.921875 -8.40625 "/></g></g></g><g fill="#231f20" fill-opacity="1"><g transform="translate(324.166334, 276.883264)"><g><path d="M 4.5 -19.8125 L 4.5 0 L 2.0625 0 L 2.0625 -19.8125 Z M 4.5 -19.8125 "/></g></g></g><g fill="#231f20" fill-opacity="1"><g transform="translate(330.750324, 276.883264)"><g/></g></g><g fill="#231f20" fill-opacity="1"><g transform="translate(337.896362, 276.883264)"><g><path d="M 1.15625 -7.390625 C 1.15625 -8.890625 1.457031 -10.203125 2.0625 -11.328125 C 2.664062 -12.460938 3.5 -13.34375 4.5625 -13.96875 C 5.625 -14.59375 6.804688 -14.90625 8.109375 -14.90625 C 9.390625 -14.90625 10.503906 -14.628906 11.453125 -14.078125 C 12.398438 -13.523438 13.101562 -12.828125 13.5625 -11.984375 L 13.5625 -14.671875 L 16.03125 -14.671875 L 16.03125 0 L 13.5625 0 L 13.5625 -2.734375 C 13.082031 -1.878906 12.363281 -1.171875 11.40625 -0.609375 C 10.457031 -0.046875 9.347656 0.234375 8.078125 0.234375 C 6.773438 0.234375 5.597656 -0.0820312 4.546875 -0.71875 C 3.492188 -1.363281 2.664062 -2.265625 2.0625 -3.421875 C 1.457031 -4.585938 1.15625 -5.910156 1.15625 -7.390625 Z M 13.5625 -7.359375 C 13.5625 -8.460938 13.335938 -9.425781 12.890625 -10.25 C 12.453125 -11.070312 11.851562 -11.703125 11.09375 -12.140625 C 10.332031 -12.578125 9.5 -12.796875 8.59375 -12.796875 C 7.6875 -12.796875 6.859375 -12.582031 6.109375 -12.15625 C 5.359375 -11.726562 4.757812 -11.101562 4.3125 -10.28125 C 3.863281 -9.457031 3.640625 -8.492188 3.640625 -7.390625 C 3.640625 -6.265625 3.863281 -5.285156 4.3125 -4.453125 C 4.757812 -3.628906 5.359375 -3 6.109375 -2.5625 C 6.859375 -2.125 7.6875 -1.90625 8.59375 -1.90625 C 9.5 -1.90625 10.332031 -2.125 11.09375 -2.5625 C 11.851562 -3 12.453125 -3.628906 12.890625 -4.453125 C 13.335938 -5.285156 13.5625 -6.253906 13.5625 -7.359375 Z M 13.5625 -7.359375 "/></g></g></g><g fill="#231f20" fill-opacity="1"><g transform="translate(355.98895, 276.883264)"><g><path d="M 9.203125 -14.9375 C 10.992188 -14.9375 12.441406 -14.394531 13.546875 -13.3125 C 14.648438 -12.238281 15.203125 -10.679688 15.203125 -8.640625 L 15.203125 0 L 12.796875 0 L 12.796875 -8.296875 C 12.796875 -9.753906 12.425781 -10.875 11.6875 -11.65625 C 10.957031 -12.4375 9.960938 -12.828125 8.703125 -12.828125 C 7.410156 -12.828125 6.382812 -12.421875 5.625 -11.609375 C 4.875 -10.804688 4.5 -9.640625 4.5 -8.109375 L 4.5 0 L 2.0625 0 L 2.0625 -14.671875 L 4.5 -14.671875 L 4.5 -12.578125 C 4.976562 -13.328125 5.628906 -13.90625 6.453125 -14.3125 C 7.285156 -14.726562 8.203125 -14.9375 9.203125 -14.9375 Z M 9.203125 -14.9375 "/></g></g></g><g fill="#231f20" fill-opacity="1"><g transform="translate(373.118033, 276.883264)"><g><path d="M 1.15625 -7.390625 C 1.15625 -8.890625 1.457031 -10.203125 2.0625 -11.328125 C 2.664062 -12.460938 3.5 -13.34375 4.5625 -13.96875 C 5.625 -14.59375 6.816406 -14.90625 8.140625 -14.90625 C 9.273438 -14.90625 10.332031 -14.640625 11.3125 -14.109375 C 12.300781 -13.585938 13.050781 -12.898438 13.5625 -12.046875 L 13.5625 -19.8125 L 16.03125 -19.8125 L 16.03125 0 L 13.5625 0 L 13.5625 -2.75 C 13.082031 -1.882812 12.367188 -1.171875 11.421875 -0.609375 C 10.484375 -0.046875 9.378906 0.234375 8.109375 0.234375 C 6.804688 0.234375 5.625 -0.0820312 4.5625 -0.71875 C 3.5 -1.363281 2.664062 -2.265625 2.0625 -3.421875 C 1.457031 -4.585938 1.15625 -5.910156 1.15625 -7.390625 Z M 13.5625 -7.359375 C 13.5625 -8.460938 13.335938 -9.425781 12.890625 -10.25 C 12.453125 -11.070312 11.851562 -11.703125 11.09375 -12.140625 C 10.332031 -12.578125 9.5 -12.796875 8.59375 -12.796875 C 7.6875 -12.796875 6.859375 -12.582031 6.109375 -12.15625 C 5.359375 -11.726562 4.757812 -11.101562 4.3125 -10.28125 C 3.863281 -9.457031 3.640625 -8.492188 3.640625 -7.390625 C 3.640625 -6.265625 3.863281 -5.285156 4.3125 -4.453125 C 4.757812 -3.628906 5.359375 -3 6.109375 -2.5625 C 6.859375 -2.125 7.6875 -1.90625 8.59375 -1.90625 C 9.5 -1.90625 10.332031 -2.125 11.09375 -2.5625 C 11.851562 -3 12.453125 -3.628906 12.890625 -4.453125 C 13.335938 -5.285156 13.5625 -6.253906 13.5625 -7.359375 Z M 13.5625 -7.359375 "/></g></g></g><g fill="#231f20" fill-opacity="1"><g transform="translate(391.210621, 276.883264)"><g/></g></g><g fill="#231f20" fill-opacity="1"><g transform="translate(398.356659, 276.883264)"><g><path d="M 13.546875 -18.65625 L 13.546875 -16.671875 L 8.453125 -16.671875 L 8.453125 0 L 6.015625 0 L 6.015625 -16.671875 L 0.90625 -16.671875 L 0.90625 -18.65625 Z M 13.546875 -18.65625 "/></g></g></g><g fill="#231f20" fill-opacity="1"><g transform="translate(412.836091, 276.883264)"><g><path d="M 8.453125 0.234375 C 7.078125 0.234375 5.832031 -0.0703125 4.71875 -0.6875 C 3.601562 -1.3125 2.726562 -2.195312 2.09375 -3.34375 C 1.46875 -4.5 1.15625 -5.835938 1.15625 -7.359375 C 1.15625 -8.859375 1.476562 -10.179688 2.125 -11.328125 C 2.78125 -12.484375 3.671875 -13.367188 4.796875 -13.984375 C 5.921875 -14.597656 7.175781 -14.90625 8.5625 -14.90625 C 9.957031 -14.90625 11.21875 -14.597656 12.34375 -13.984375 C 13.46875 -13.367188 14.351562 -12.488281 15 -11.34375 C 15.65625 -10.207031 15.984375 -8.878906 15.984375 -7.359375 C 15.984375 -5.835938 15.644531 -4.5 14.96875 -3.34375 C 14.300781 -2.195312 13.394531 -1.3125 12.25 -0.6875 C 11.113281 -0.0703125 9.847656 0.234375 8.453125 0.234375 Z M 8.453125 -1.90625 C 9.328125 -1.90625 10.148438 -2.109375 10.921875 -2.515625 C 11.691406 -2.921875 12.3125 -3.535156 12.78125 -4.359375 C 13.25 -5.179688 13.484375 -6.179688 13.484375 -7.359375 C 13.484375 -8.535156 13.25 -9.535156 12.78125 -10.359375 C 12.320312 -11.179688 11.71875 -11.789062 10.96875 -12.1875 C 10.21875 -12.59375 9.40625 -12.796875 8.53125 -12.796875 C 7.644531 -12.796875 6.832031 -12.59375 6.09375 -12.1875 C 5.351562 -11.789062 4.757812 -11.179688 4.3125 -10.359375 C 3.863281 -9.535156 3.640625 -8.535156 3.640625 -7.359375 C 3.640625 -6.160156 3.859375 -5.148438 4.296875 -4.328125 C 4.734375 -3.515625 5.316406 -2.90625 6.046875 -2.5 C 6.773438 -2.101562 7.578125 -1.90625 8.453125 -1.90625 Z M 8.453125 -1.90625 "/></g></g></g><g fill="#231f20" fill-opacity="1"><g transform="translate(429.965173, 276.883264)"><g><path d="M 15.0625 -14.671875 L 15.0625 0 L 12.640625 0 L 12.640625 -2.171875 C 12.171875 -1.421875 11.519531 -0.832031 10.6875 -0.40625 C 9.863281 0.0078125 8.953125 0.21875 7.953125 0.21875 C 6.804688 0.21875 5.773438 -0.015625 4.859375 -0.484375 C 3.953125 -0.960938 3.234375 -1.675781 2.703125 -2.625 C 2.179688 -3.570312 1.921875 -4.722656 1.921875 -6.078125 L 1.921875 -14.671875 L 4.34375 -14.671875 L 4.34375 -6.390625 C 4.34375 -4.953125 4.707031 -3.84375 5.4375 -3.0625 C 6.164062 -2.289062 7.164062 -1.90625 8.4375 -1.90625 C 9.738281 -1.90625 10.765625 -2.304688 11.515625 -3.109375 C 12.265625 -3.910156 12.640625 -5.078125 12.640625 -6.609375 L 12.640625 -14.671875 Z M 15.0625 -14.671875 "/></g></g></g><g fill="#231f20" fill-opacity="1"><g transform="translate(447.094256, 276.883264)"><g><path d="M 4.5 -12.28125 C 4.925781 -13.125 5.535156 -13.773438 6.328125 -14.234375 C 7.117188 -14.703125 8.085938 -14.9375 9.234375 -14.9375 L 9.234375 -12.421875 L 8.59375 -12.421875 C 5.863281 -12.421875 4.5 -10.9375 4.5 -7.96875 L 4.5 0 L 2.0625 0 L 2.0625 -14.671875 L 4.5 -14.671875 Z M 4.5 -12.28125 "/></g></g></g><g fill="#231f20" fill-opacity="1"><g transform="translate(457.077299, 276.883264)"><g><path d="M 7.25 0.234375 C 6.125 0.234375 5.113281 0.046875 4.21875 -0.328125 C 3.332031 -0.710938 2.628906 -1.25 2.109375 -1.9375 C 1.597656 -2.625 1.316406 -3.414062 1.265625 -4.3125 L 3.78125 -4.3125 C 3.84375 -3.582031 4.179688 -2.984375 4.796875 -2.515625 C 5.421875 -2.046875 6.234375 -1.8125 7.234375 -1.8125 C 8.160156 -1.8125 8.890625 -2.015625 9.421875 -2.421875 C 9.953125 -2.835938 10.21875 -3.359375 10.21875 -3.984375 C 10.21875 -4.628906 9.929688 -5.109375 9.359375 -5.421875 C 8.796875 -5.734375 7.914062 -6.039062 6.71875 -6.34375 C 5.625 -6.625 4.734375 -6.910156 4.046875 -7.203125 C 3.367188 -7.503906 2.78125 -7.941406 2.28125 -8.515625 C 1.789062 -9.097656 1.546875 -9.863281 1.546875 -10.8125 C 1.546875 -11.5625 1.769531 -12.25 2.21875 -12.875 C 2.664062 -13.5 3.300781 -13.992188 4.125 -14.359375 C 4.945312 -14.722656 5.882812 -14.90625 6.9375 -14.90625 C 8.5625 -14.90625 9.867188 -14.492188 10.859375 -13.671875 C 11.859375 -12.859375 12.394531 -11.738281 12.46875 -10.3125 L 10.03125 -10.3125 C 9.976562 -11.070312 9.671875 -11.679688 9.109375 -12.140625 C 8.546875 -12.609375 7.796875 -12.84375 6.859375 -12.84375 C 5.984375 -12.84375 5.285156 -12.65625 4.765625 -12.28125 C 4.242188 -11.90625 3.984375 -11.414062 3.984375 -10.8125 C 3.984375 -10.332031 4.140625 -9.9375 4.453125 -9.625 C 4.765625 -9.3125 5.15625 -9.0625 5.625 -8.875 C 6.101562 -8.6875 6.757812 -8.476562 7.59375 -8.25 C 8.65625 -7.957031 9.515625 -7.671875 10.171875 -7.390625 C 10.828125 -7.117188 11.390625 -6.707031 11.859375 -6.15625 C 12.335938 -5.601562 12.585938 -4.878906 12.609375 -3.984375 C 12.609375 -3.179688 12.382812 -2.457031 11.9375 -1.8125 C 11.488281 -1.175781 10.859375 -0.675781 10.046875 -0.3125 C 9.234375 0.0507812 8.300781 0.234375 7.25 0.234375 Z M 7.25 0.234375 "/></g></g></g></svg>