<svg id="Layer_1" data-name="Layer 1" xmlns="http://www.w3.org/2000/svg" viewBox="0 0 469.16 469.16"><defs><style>.cls-1{fill:#f3903f;}</style></defs><circle class="cls-1" cx="234.58" cy="234.58" r="234.58"/><path d="M174.09,333.23c-.06.5,3.27,1.64,8.66,2.62.3-1.44.59-2.86.88-4.3a30.92,30.92,0,0,0,2.19-4.61c1.66-4.37,1.8-7.72,2.55-7.71.35,0,.63.84,1.19,2.55a33.75,33.75,0,0,1,1.18,4.68,18.71,18.71,0,0,1,.33,3.28,22.6,22.6,0,0,1-.17,2.79c-.16,1.56-.32,3-.47,4.38a110,110,0,0,0,16.45.46c4.1-.2,7.5-.61,9.85-.95l-1.5-5.86c-3.77-7.9-3.13-11.65-1.75-13.62.87-1.24,1-3.75,6.91-6.92a4.35,4.35,0,0,0,1.72-1.81c2.73-5.63,7.87-6.56,13.36-7.53,4.43-.79,6.85.65,8.09,4.6,2.43,7.75,4.76,15.54,7.22,23.64h-.07l2.44,7.86c9.84.93,27,2.09,29.2-3.78.62-1.68-.15-3.55-.92-4.88q-1.08-6.14-2.15-12.27l19.05,9.23c3.55-10.09,8.08-19.48,9.85-29.35.9-5.09-2.8-11.19-5.05-16.55a83.56,83.56,0,0,0-7-12.65c-4.46-7-5.27-10.43.63-16.62,7.46-7.84,16.3-14.36,24.62-21.36a49.89,49.89,0,0,1,5.81-3.65c0-.66,0-1.32-.05-2-2.65,0-5.87-1.09-7.84,0-14.5,8.36-28.21,17.5-33.42,35-2.7,9-6.3,17.81-9.81,26.57-5.65,14.12-3.67,28.47-1.51,43.38l-17,.78c-.62-2-1.34-4.3-2.05-6.64-3.33-11-6.44-21.85-13.58-31.47-4.73-6.39-6.85-14.69-10.25-22.37-5.38,3-3.25,8-1.91,12.32,1.4,4.53,3.62,8.79,6,14.44L212,294.6c1.87-7.65,9.11-14.13,2-22.48-.94,1.63-1.66,2.4-1.85,3.28A46.71,46.71,0,0,1,192,304.9c-6.42,4.35-9,9.65-10.29,16.83-1,5.85-1.63,8.86-3.47,10.32S174.12,332.84,174.09,333.23Zm109.57-44.72a4.5,4.5,0,0,1-.69-3.87c1.86-5.19,4-10.27,6.2-15.68,13.7,15.29,15.36,33.8,4.56,46.67-2.61-1.29-5.24-2.55-7.84-3.87a14.09,14.09,0,0,1-1.83-1.47c.61-1.93.68-3.89,1.68-5.05C291.28,298.78,288.71,293.63,283.66,288.51ZM197.05,309.3c6.26-5.1,11.39-12.39,21.43-7.08-1,1.22-1.89,3.25-3.36,3.86-11.54,4.82-10.26,13.62-7.53,23a5.85,5.85,0,0,1-.22,2l-11.58.54C198.64,323.81,187.92,316.75,197.05,309.3ZM156.79,269c.43,8.58.82,17.17,1.22,25.75l1.77,38.52a4.93,4.93,0,0,0,.66,4.05c1.69,2,4.93.42,12.41.17,6.15-.21,9.43.65,10-.68s-1.95-3.29-2.16-3.47c-4.81-3.94-12.89-1.13-14.69-.46-.07-1.53-.14-3.12-.22-4.71-.79-13.6-1.8-27.18-2.31-40.79a216.72,216.72,0,0,1,.83-28.32c6.51,9,12.77,17.92,8,29.81,10.75-.15,14.48-7.79,9.44-17.59-.47,2.57-.88,4.82-1.25,6.77-3.17-7.76-6.3-15.49-9.49-23.18-2.54-6.11-1.93-12.19,3.15-16.11,7.22-5.57,14.88-11,23.17-14.61,11.46-5,23.66-8.39,35.77-12.53,1.76,6.13,3.08,12.91,5.7,19.13a52.83,52.83,0,0,0,9.4,15.4c7.49,8.08,21.32,8.59,30,1.74,1.94-1.52,2.94-4.26,4.38-6.43-.53-.54-1-1.08-1.55-1.61-2.52,1.19-5,2.44-7.56,3.55-12.09,5.28-21.12,3-25.94-9.06-4.44-11.14-6.66-23.29-8.75-35.19-1.15-6.57,3.66-12.15,10.3-11.61,11.91,1,21.4-2.52,31.34-9.08,10.56-7,23.19-7.3,34.93-1,8.37,4.48,16.29,3.88,23.63-1.58,8-5.92,10.9-14.48,9.27-24-3.42-20-24.21-29-41.59-18.49a7.15,7.15,0,0,1-4.79,1.25,29.74,29.74,0,0,1,24.28-9.77c16.3.81,28.64,8.56,34.87,23.86,6.42,15.74,3.08,30.09-8.79,42.3-7.23,7.44-7.75,8.36-6.66,14.25,17.83-12.46,26.82-27.56,24.6-46.85S355,124.67,336.81,119.92c-13.43-3.5-25.82-1-37.22,6.72-5.29,3.59-6.23,7.13-3.34,11.51,3.08,4.63,7.65,5.19,13,1.34a20.45,20.45,0,0,1,31.15,24.33c-3.9,9.07-12.81,12.26-21.77,8-18.32-8.73-35-4.83-50.95,6.37A16.39,16.39,0,0,1,260,180.6c-5.19.5-10.55-.25-15.62.71-8.45,1.6-12.86,7.07-12.17,15.72.45,5.83-1.9,8.58-6.71,10.26-8.71,3.05-17.41,6.15-26.19,9-10.74,3.48-20.62,8.4-28.8,16.32-6.64,6.44-10.59,13.71-5.86,24.17C157.85,258.58,156.49,263.33,156.79,269Z" transform="translate(-15.42 -15.42)"/><path d="M371.49,196.94c-6.08,10.23-15.75,12.64-25.62,13.74s-20.12,1.07-30.59,1.56c-.29,1.91-.57,3.67-.82,5.29.7.41,1.07.83,1.41.8,13.36-1,26.8-1.43,40-3.3,5.3-.75,10.42-4.23,15.12-7.25C374.9,205.28,375.35,201.41,371.49,196.94Z" transform="translate(-15.42 -15.42)"/><path d="M302.85,194a4.48,4.48,0,0,0,5.39-.67,4.06,4.06,0,0,0,.9-3" transform="translate(-15.42 -15.42)"/></svg>